<svg xmlns="http://www.w3.org/2000/svg" viewBox="0 0 960 540" role="img" aria-label="Juni IDE highlighting Play mode">
  <defs>
    <linearGradient id="bg" x1="0" y1="0" x2="1" y2="1">
      <stop offset="0%" stop-color="#d9efe6"/>
      <stop offset="55%" stop-color="#f3efe6"/>
      <stop offset="100%" stop-color="#f0e0c8"/>
    </linearGradient>
  </defs>
  <rect width="960" height="540" fill="url(#bg)"/>
  <rect x="0" y="0" width="960" height="56" fill="#f7f3eb" stroke="#1c19151f"/>
  <text x="20" y="36" font-family="Syne, sans-serif" font-size="28" font-weight="800" fill="#1c1915">Juni</text>
  <rect x="400" y="12" width="52" height="32" rx="6" fill="transparent" stroke="#1c191540"/>
  <text x="426" y="33" text-anchor="middle" font-family="Syne, sans-serif" font-size="12" font-weight="600" fill="#6b645a">Edit</text>
  <rect x="456" y="12" width="52" height="32" rx="6" fill="#0f6e56"/>
  <text x="482" y="33" text-anchor="middle" font-family="Syne, sans-serif" font-size="12" font-weight="700" fill="#f7fff9">Play</text>
  <path d="M482 44 L482 72" stroke="#0f6e56" stroke-width="2"/>
  <rect x="402" y="72" width="160" height="32" rx="6" fill="#0f6e56"/>
  <text x="482" y="93" text-anchor="middle" font-family="JetBrains Mono, monospace" font-size="12" fill="#f7fff9">3 · Play the game</text>
  <rect x="800" y="12" width="84" height="32" rx="6" fill="#0f6e56"/>
  <text x="842" y="33" text-anchor="middle" font-family="Syne, sans-serif" font-size="12" font-weight="700" fill="#f7fff9">Running</text>
  <rect x="12" y="68" width="140" height="460" fill="#f7f3eb" stroke="#1c19151f"/>
  <text x="24" y="92" font-family="Syne, sans-serif" font-size="10" font-weight="700" fill="#6b645a" letter-spacing="2">PROJECT</text>
  <text x="24" y="118" font-family="JetBrains Mono, monospace" font-size="11" fill="#1c1915">src/main.juni</text>
  <rect x="160" y="68" width="300" height="300" fill="#faf7f1" stroke="#1c19151f"/>
  <text x="176" y="96" font-family="JetBrains Mono, monospace" font-size="12" fill="#6b645a">// playing&</text>
  <!-- Live preview highlight -->
  <rect x="468" y="68" width="480" height="300" fill="#0a0a0c" stroke="#0f6e56" stroke-width="3"/>
  <text x="484" y="92" font-family="Syne, sans-serif" font-size="10" font-weight="700" fill="#0f6e56" letter-spacing="2">LIVE PREVIEW</text>
  <rect x="520" y="220" width="56" height="56" rx="6" fill="#3d8b6e"/>
  <rect x="500" y="290" width="280" height="20" fill="#8b7355"/>
  <circle cx="700" cy="200" r="12" fill="#e8c547"/>
  <circle cx="760" cy="180" r="12" fill="#e8c547"/>
  <text x="708" y="340" text-anchor="middle" font-family="JetBrains Mono, monospace" font-size="13" fill="#e8e1d4">score: 2</text>
  <rect x="160" y="376" width="788" height="152" fill="#1c1915"/>
  <text x="176" y="404" font-family="Syne, sans-serif" font-size="10" font-weight="700" fill="#e8e1d48c" letter-spacing="2">CONSOLE</text>
  <text x="176" y="432" font-family="JetBrains Mono, monospace" font-size="12" fill="#e8e1d480">Compiled OK · frame loop running</text>
</svg>
